<svg width="30px" height="30px" viewBox="0 0 30 30" version="1.1" xmlns="http://www.w3.org/2000/svg" xmlns:xlink="http://www.w3.org/1999/xlink">
    <title>Facebook</title>
    <g stroke="none" stroke-width="1" fill="none" fill-rule="evenodd">
        <rect class="lbh-contact__fill" x="0" y="0" width="30" height="30" rx="4"></rect>
        <path d="M20.554729,5.00416133 L17.9240664,5 C14.9686072,5 13.0586597,6.93189975 13.0586597,9.92202699 L13.0586597,12.191411 L10.4136461,12.191411 C10.1850855,12.191411 10,12.3740936 10,12.5994299 L10,15.8875087 C10,16.112845 10.1852966,16.2953195 10.4136461,16.2953195 L13.0586597,16.2953195 L13.0586597,24.5921892 C13.0586597,24.8175255 13.2437452,25 13.4723058,25 L16.9232961,25 C17.1518567,25 17.3369422,24.8173174 17.3369422,24.5921892 L17.3369422,16.2953195 L19.9310462,16.2953195 C20.1596068,16.2953195 20.3446923,16.112845 20.3446923,15.8875087 L20.8444923,12.5994299 C20.8444923,12.4912352 20.8008062,12.3876179 20.7233531,12.3110494 C20.6458999,12.2344808 20.540378,12.191411 20.4306351,12.191411 L17.3369422,12.191411 L17.3369422,10.2676259 C17.3369422,9.34297723 17.5604377,8.87357864 18.782171,8.87357864 L20.5543069,8.87295444 C20.7826564,8.87295444 20.9677419,8.69027184 20.9677419,8.46514362 L20.9677419,5.41197216 C20.9677419,5.18705201 20.7828675,5.00457747 20.554729,5.00416133 Z" fill="#FFFFFF" fill-rule="nonzero"></path>
    </g>
</svg>
