<svg width="20px" height="20px" viewBox="0 0 20 20" version="1.1" xmlns="http://www.w3.org/2000/svg" xmlns:xlink="http://www.w3.org/1999/xlink">
    <title>Address</title>
    <g id="lbh-components/icons/address" stroke="none" stroke-width="1" fill="none" fill-rule="evenodd">
        <path d="M7.28060417,19.6166556 C1.98328125,11.7999759 1,10.9977456 1,8.12499826 C1,4.18995821 4.13399479,1 8,1 C11.8660052,1 15,4.18995821 15,8.12499826 C15,10.9977456 14.0167187,11.7999759 8.71939583,19.6166556 C8.37176563,20.1278 7.62819792,20.1277629 7.28060417,19.6166556 Z M8,11 C9.6568625,11 11,9.6568625 11,8 C11,6.3431375 9.6568625,5 8,5 C6.3431375,5 5,6.3431375 5,8 C5,9.6568625 6.3431375,11 8,11 Z" fill="#0B0C0C"></path>
    </g>
</svg>
