<svg width="20px" height="20px" viewBox="0 0 20 20" version="1.1" xmlns="http://www.w3.org/2000/svg" xmlns:xlink="http://www.w3.org/1999/xlink">
    <title>Email</title>
    <g stroke="none" stroke-width="1" fill="none" fill-rule="evenodd">
        <rect id="Rectangle-" fill="#FFFFFF" x="0" y="0" width="20" height="20"></rect>
        <path d="M15.696875,8.03964856 C15.81875,7.94370342 16,8.03345855 16,8.18511377 L16,14.5143979 C16,15.334574 15.328125,16 14.5,16 L1.5,16 C0.671875,16 0,15.334574 0,14.5143979 L0,8.18820877 C0,8.03345855 0.178125,7.94679843 0.303125,8.04274357 C1.003125,8.58127434 1.93125,9.26527032 5.11875,11.5586686 C5.778125,12.0352993 6.890625,13.0380807 8,13.0318907 C9.115625,13.0411757 10.25,12.0167293 10.884375,11.5586686 C14.071875,9.26527032 14.996875,8.57817933 15.696875,8.03964856 Z M8,11.9998746 C8.725,12.0123744 9.76875,11.0873889 10.29375,10.7061448 C14.440625,7.69681703 14.75625,7.43432115 15.7125,6.68433291 C15.89375,6.54371011 16,6.32496354 16,6.09371717 L16,5.49997648 C16,4.67186446 15.328125,4 14.5,4 L1.5,4 C0.671875,4 0,4.67186446 0,5.49997648 L0,6.09371717 C0,6.32496354 0.10625,6.54058516 0.2875,6.68433291 C1.24375,7.4311962 1.559375,7.69681703 5.70625,10.7061448 C6.23125,11.0873889 7.275,12.0123744 8,11.9998746 Z" fill="#0B0C0C"></path>
    </g>
</svg>
