<svg width="20px" height="20px" viewBox="0 0 20 20" version="1.1" xmlns="http://www.w3.org/2000/svg" xmlns:xlink="http://www.w3.org/1999/xlink">
    <title>Notes</title>
    <g stroke="none" stroke-width="1" fill="none" fill-rule="evenodd">
        <g id="lbh-components/icons/notes-Copy-1" transform="translate(-1.000000, 0.000000)">
            <g id="lbh-components/icons/notes" transform="translate(1.000000, 0.000000)">
                <rect id="Rectangle-Copy-4" fill="#FFFFFF" x="0" y="0" width="20" height="20"></rect>
                <path d="M10.3571429,11.7142857 L14,11.7142857 L14,4.64285714 C14,4.28660714 13.7133929,4 13.3571429,4 L2.64285714,4 C2.28660714,4 2,4.28660714 2,4.64285714 L2,15.3571429 C2,15.7133929 2.28660714,16 2.64285714,16 L9.71428571,16 L9.71428571,12.3571429 C9.71428571,12.0035714 10.0035714,11.7142857 10.3571429,11.7142857 Z M13.8125,13.1875 L11.1875,15.8125 C11.0669643,15.9330357 10.9035714,16 10.7321429,16 L10.5714286,16 L10.5714286,12.5714286 L14,12.5714286 L14,12.7348214 C14,12.9035714 13.9330357,13.0669643 13.8125,13.1875 Z" fill="#000000" fill-rule="nonzero"></path>
            </g>
        </g>
    </g>
</svg>
