<svg width="214" height="206" viewBox="0 0 214 206" fill="none" xmlns="http://www.w3.org/2000/svg">
<path fill-rule="evenodd" clip-rule="evenodd" d="M144.789 86C144.789 107.57 132.835 126.292 115.316 135.647V96.3158H64.4735V135.646C46.9545 126.292 35 107.57 35 86C35 64.43 46.9545 45.7083 64.4735 36.3537V75.6842H115.316V36.3535C132.835 45.708 144.789 64.4298 144.789 86Z" fill="#fff"/>
<path fill-rule="evenodd" clip-rule="evenodd" d="M0 150.065C0 147.304 2.23857 145.065 5 145.065H20.93C23.6914 145.065 25.93 147.304 25.93 150.065V165.995C25.93 168.757 23.6914 170.995 20.93 170.995H5C2.23858 170.995 0 168.757 0 165.995V150.065ZM6 151.065V164.995H19.93V151.065H6Z" fill="#fff"/>
<path fill-rule="evenodd" clip-rule="evenodd" d="M152.978 5C152.978 2.23858 155.217 0 157.978 0H173.908C176.67 0 178.908 2.23857 178.908 5V20.93C178.908 23.6914 176.67 25.93 173.908 25.93H157.978C155.217 25.93 152.978 23.6914 152.978 20.93V5ZM158.978 6V19.93H172.908V6H158.978Z" fill="#fff"/>
<path fill-rule="evenodd" clip-rule="evenodd" d="M152.978 150.065C152.978 147.304 155.217 145.065 157.978 145.065H173.908C176.67 145.065 178.908 147.304 178.908 150.065V165.995C178.908 168.757 176.67 170.995 173.908 170.995H157.978C155.217 170.995 152.978 168.757 152.978 165.995V150.065ZM158.978 151.065V164.995H172.908V151.065H158.978Z" fill="#fff"/>
<path fill-rule="evenodd" clip-rule="evenodd" d="M0 5C0 2.23858 2.23857 0 5 0H20.93C23.6914 0 25.93 2.23857 25.93 5V20.93C25.93 23.6914 23.6914 25.93 20.93 25.93H5C2.23858 25.93 0 23.6914 0 20.93V5ZM6 6V19.93H19.93V6H6Z" fill="#fff"/>
<path d="M166.967 156.31C165.276 155.524 163.524 157.276 164.31 158.967L185.629 204.803C186.472 206.615 189.158 206.207 189.425 204.227L191.93 185.645C192.05 184.753 192.752 184.051 193.645 183.93L212.227 181.425C214.207 181.158 214.615 178.472 212.803 177.63L166.967 156.31Z" fill="#fff"/>
<path fill-rule="evenodd" clip-rule="evenodd" d="M155 16H24V11H155V16Z" fill="#fff"/>
<path fill-rule="evenodd" clip-rule="evenodd" d="M162.5 148L162.5 23L167.5 23L167.5 148L162.5 148Z" fill="#fff"/>
<path fill-rule="evenodd" clip-rule="evenodd" d="M155 160.5H24V155.5H155V160.5Z" fill="#fff"/>
<path fill-rule="evenodd" clip-rule="evenodd" d="M10.5 148L10.5 23L15.5 23L15.5 148L10.5 148Z" fill="#fff"/>
</svg>
