<svg width="20px" height="20px" viewBox="0 0 20 20" version="1.1" xmlns="http://www.w3.org/2000/svg" xmlns:xlink="http://www.w3.org/1999/xlink">
    <title>Phone</title>
    <g stroke="none" stroke-width="1" fill="none" fill-rule="evenodd">
        <path d="M13.05,0 L3.95,0 C2.8734375,0 2,0.83984375 2,1.875 L2,18.125 C2,19.1601562 2.8734375,20 3.95,20 L13.05,20 C14.1265625,20 15,19.1601562 15,18.125 L15,1.875 C15,0.83984375 14.1265625,0 13.05,0 Z M8.5,18.75 C7.7809375,18.75 7.2,18.1914063 7.2,17.5 C7.2,16.8085938 7.7809375,16.25 8.5,16.25 C9.2190625,16.25 9.8,16.8085938 9.8,17.5 C9.8,18.1914063 9.2190625,18.75 8.5,18.75 Z M13.05,14.53125 C13.05,14.7890625 12.830625,15 12.5625,15 L4.4375,15 C4.169375,15 3.95,14.7890625 3.95,14.53125 L3.95,2.34375 C3.95,2.0859375 4.169375,1.875 4.4375,1.875 L12.5625,1.875 C12.830625,1.875 13.05,2.0859375 13.05,2.34375 L13.05,14.53125 Z" fill="#0B0C0C"></path>
    </g>
</svg>
