<svg width="20px" height="20px" viewBox="0 0 20 20" version="1.1" xmlns="http://www.w3.org/2000/svg" xmlns:xlink="http://www.w3.org/1999/xlink">
    <title>Opening times</title>
    <g id="lbh-components/icons/Opening-times" stroke="none" stroke-width="1" fill="none" fill-rule="evenodd">
        <rect id="Rectangle-Copy-3" fill="#FFFFFF" x="0" y="0" width="20" height="20"></rect>
        <path d="M8.5,3 C4.35685484,3 1,6.35685484 1,10.5 C1,14.6431452 4.35685484,18 8.5,18 C12.6431452,18 16,14.6431452 16,10.5 C16,6.35685484 12.6431452,3 8.5,3 Z M10.6702572,13.2453364 L7.72606617,11.3703076 C7.62258553,11.3030289 7.5625,11.1977231 7.5625,11.0865669 L7.5625,6.16351943 C7.5625,5.97045874 7.74275659,5.8125 7.9630702,5.8125 L9.56535102,5.8125 C9.78566463,5.8125 9.96592123,5.97045874 9.96592123,6.16351943 L9.96592123,10.1914674 L12.0856052,11.5428922 C12.2658618,11.6569735 12.3025808,11.8763606 12.1723954,12.0343194 L11.2310555,13.1692822 C11.1008701,13.3243158 10.8505138,13.3594177 10.6702572,13.2453364 Z" fill="#000000" fill-rule="nonzero"></path>
    </g>
</svg>
