<svg width="30px" height="30px" viewBox="0 0 30 30" version="1.1" xmlns="http://www.w3.org/2000/svg" xmlns:xlink="http://www.w3.org/1999/xlink">
    <title>Instagram</title>
    <g stroke="none" stroke-width="1" fill="none" fill-rule="evenodd">
        <rect class="lbh-contact__fill" x="0" y="0" width="30" height="30" rx="4"></rect>
        <path d="M19.0418922,5 L10.9581078,5 C7.67279333,5 5,7.67279333 5,10.9581078 L5,19.0418922 C5,22.3272067 7.67279333,25 10.9581078,25 L19.0418922,25 C22.3272067,25 25,22.3272067 25,19.0418922 L25,10.9581078 C25,7.67279333 22.3271704,5 19.0418922,5 Z M22.9880007,19.0418922 C22.9880007,21.2212495 21.2212495,22.9880007 19.0418922,22.9880007 L10.9581078,22.9880007 C8.77875049,22.9880007 7.01199926,21.2212495 7.01199926,19.0418922 L7.01199926,10.9581078 C7.01199926,8.7787142 8.77875049,7.01199926 10.9581078,7.01199926 L19.0418922,7.01199926 C21.2212495,7.01199926 22.9880007,8.7787142 22.9880007,10.9581078 L22.9880007,19.0418922 L22.9880007,19.0418922 Z M15,9.84848485 C12.15945,9.84848485 9.84848485,12.1594581 9.84848485,14.9999819 C9.84848485,17.8405058 12.15945,20.1515152 15,20.1515152 C17.84055,20.1515152 20.1515152,17.8405419 20.1515152,14.9999819 C20.1515152,12.1594219 17.84055,9.84848485 15,9.84848485 Z M15,18.1477897 C13.2615258,18.1477897 11.8522394,16.7384983 11.8522394,15.0000181 C11.8522394,13.2615378 13.261562,11.8522465 15,11.8522465 C16.7384742,11.8522465 18.1477606,13.2615378 18.1477606,15.0000181 C18.1477606,16.7384622 16.738438,18.1477897 15,18.1477897 Z M20.1515152,11.6666667 C19.4820791,11.6666667 18.9393939,11.1239815 18.9393939,10.4545455 C18.9393939,9.78510939 19.4820791,9.24242424 20.1515152,9.24242424 C20.8209512,9.24242424 21.3636364,9.78510939 21.3636364,10.4545455 C21.3636364,11.1239815 20.8209512,11.6666667 20.1515152,11.6666667 Z" fill="#FFFFFF" fill-rule="nonzero"></path>
    </g>
</svg>
