<svg width="30px" height="30px" viewBox="0 0 30 30" version="1.1" xmlns="http://www.w3.org/2000/svg" xmlns:xlink="http://www.w3.org/1999/xlink">
    <title>Twitter</title>
    <g stroke="none" stroke-width="1" fill="none" fill-rule="evenodd">
        <rect class="lbh-contact__fill" x="0" y="0" width="30" height="30" rx="4"></rect>
        <path d="M25,8.9372028 C24.25625,9.26573427 23.46375,9.4834965 22.6375,9.58923077 C23.4875,9.07818182 24.13625,8.2751049 24.44125,7.30713287 C23.64875,7.78293706 22.77375,8.11902098 21.84125,8.30657343 C21.08875,7.49972028 20.01625,7 18.84625,7 C16.57625,7 14.74875,8.85538462 14.74875,11.1299301 C14.74875,11.4572028 14.77625,11.7718881 14.84375,12.0714685 C11.435,11.9040559 8.41875,10.2588811 6.3925,7.75272727 C6.03875,8.37076923 5.83125,9.07818182 5.83125,9.83972028 C5.83125,11.2696503 6.5625,12.5372028 7.6525,13.271049 C6.99375,13.2584615 6.3475,13.0658741 5.8,12.7625175 C5.8,12.7751049 5.8,12.7914685 5.8,12.8078322 C5.8,14.8142657 7.22125,16.4808392 9.085,16.8647552 C8.75125,16.9566434 8.3875,17.0006993 8.01,17.0006993 C7.7475,17.0006993 7.4825,16.9855944 7.23375,16.9302098 C7.765,18.5653147 9.2725,19.7674126 11.065,19.8064336 C9.67,20.9053147 7.89875,21.5674126 5.98125,21.5674126 C5.645,21.5674126 5.3225,21.5523077 5,21.5107692 C6.81625,22.6902098 8.96875,23.3636364 11.29,23.3636364 C18.835,23.3636364 22.96,17.0699301 22.96,11.6145455 C22.96,11.432028 22.95375,11.2558042 22.945,11.0808392 C23.75875,10.4993007 24.4425,9.77300699 25,8.9372028 Z" fill="#FFFFFF" fill-rule="nonzero"></path>
    </g>
</svg>
