<svg width="30px" height="30px" viewBox="0 0 30 30" version="1.1" xmlns="http://www.w3.org/2000/svg" xmlns:xlink="http://www.w3.org/1999/xlink">
    <title>Youtube</title>
    <g stroke="none" stroke-width="1" fill-rule="evenodd">
        <path class="lbh-contact__fill" d="M12.5089286,11.390625 L18.8839286,15.0133929 L12.5089286,18.6361607 L12.5089286,11.390625 Z M30,3.21428571 L30,26.7857143 C30,28.5602679 28.5602679,30 26.7857143,30 L3.21428571,30 C1.43973214,30 0,28.5602679 0,26.7857143 L0,3.21428571 C0,1.43973214 1.43973214,0 3.21428571,0 L26.7857143,0 C28.5602679,0 30,1.43973214 30,3.21428571 Z M27.1875,15.0200893 C27.1875,15.0200893 27.1875,11.0290179 26.6785714,9.11383929 C26.3973214,8.05580357 25.5736607,7.22544643 24.5223214,6.94419643 C22.6272321,6.42857143 15,6.42857143 15,6.42857143 C15,6.42857143 7.37276786,6.42857143 5.47767857,6.94419643 C4.42633929,7.22544643 3.60267857,8.05580357 3.32142857,9.11383929 C2.8125,11.0223214 2.8125,15.0200893 2.8125,15.0200893 C2.8125,15.0200893 2.8125,19.0111607 3.32142857,20.9263393 C3.60267857,21.984375 4.42633929,22.78125 5.47767857,23.0625 C7.37276786,23.5714286 15,23.5714286 15,23.5714286 C15,23.5714286 22.6272321,23.5714286 24.5223214,23.0558036 C25.5736607,22.7745536 26.3973214,21.9776786 26.6785714,20.9196429 C27.1875,19.0111607 27.1875,15.0200893 27.1875,15.0200893 L27.1875,15.0200893 Z" fill-rule="nonzero"></path>
    </g>
</svg>
